<mxfile host="65bd71144e">
    <diagram id="0VBv11xTZWIw7nRm5KuE" name="ページ1">
        <mxGraphModel dx="1858" dy="1156" grid="1" gridSize="10" guides="1" tooltips="1" connect="1" arrows="1" fold="1" page="1" pageScale="1" pageWidth="1654" pageHeight="1169" math="0" shadow="0">
            <root>
                <mxCell id="0"/>
                <mxCell id="1" parent="0"/>
                <mxCell id="2" value="連絡板" style="swimlane;whiteSpace=wrap;html=1;" vertex="1" parent="1">
                    <mxGeometry x="70" y="500" width="170" height="210" as="geometry">
                        <mxRectangle x="210" y="190" width="140" height="30" as="alternateBounds"/>
                    </mxGeometry>
                </mxCell>
                <mxCell id="3" value="&amp;lt;表示&amp;gt;&lt;br&gt;・連絡用メッセージ&lt;br&gt;・編集ボタン&lt;br&gt;&lt;hr&gt;&amp;lt;入力&amp;gt;&lt;br&gt;・連絡用メッセージ&lt;br&gt;　（編集モード時のみ）&lt;br&gt;&lt;hr&gt;&amp;lt;操作&amp;gt;&lt;br&gt;・編集ボタン" style="text;html=1;align=left;verticalAlign=top;resizable=0;points=[];autosize=1;strokeColor=none;fillColor=none;" vertex="1" parent="2">
                    <mxGeometry x="5" y="28" width="160" height="160" as="geometry"/>
                </mxCell>
                <mxCell id="7" value="「編集ボタン」を&lt;br&gt;クリックする" style="whiteSpace=wrap;html=1;shape=mxgraph.basic.loud_callout" vertex="1" parent="1">
                    <mxGeometry x="330" y="710" width="190" height="90" as="geometry"/>
                </mxCell>
                <mxCell id="9" value="" style="endArrow=open;html=1;entryX=0;entryY=0.51;entryDx=0;entryDy=0;entryPerimeter=0;endFill=0;exitX=1;exitY=0.75;exitDx=0;exitDy=0;" edge="1" parent="1" source="2" target="7">
                    <mxGeometry width="50" height="50" relative="1" as="geometry">
                        <mxPoint x="410" y="570" as="sourcePoint"/>
                        <mxPoint x="460" y="520" as="targetPoint"/>
                    </mxGeometry>
                </mxCell>
                <mxCell id="67" style="edgeStyle=none;html=1;exitX=1;exitY=1;exitDx=0;exitDy=0;entryX=0;entryY=0.51;entryDx=0;entryDy=0;entryPerimeter=0;fontSize=12;endArrow=open;endFill=0;" edge="1" parent="1" source="10" target="64">
                    <mxGeometry relative="1" as="geometry"/>
                </mxCell>
                <mxCell id="10" value="(2)編集モードに変更する" style="ellipse;whiteSpace=wrap;html=1;" vertex="1" parent="1">
                    <mxGeometry x="549" y="725" width="210" height="60" as="geometry"/>
                </mxCell>
                <mxCell id="11" value="1. 表示モードの場合" style="text;html=1;strokeColor=none;fillColor=none;align=left;verticalAlign=middle;whiteSpace=wrap;rounded=0;fontSize=14;fontStyle=4" vertex="1" parent="1">
                    <mxGeometry x="40" y="400" width="210" height="30" as="geometry"/>
                </mxCell>
                <mxCell id="12" value="連絡板テーブル" style="shape=cylinder3;html=1;boundedLbl=1;backgroundOutline=1;size=15;fontSize=14;" vertex="1" parent="1">
                    <mxGeometry x="580" y="845" width="90" height="100" as="geometry"/>
                </mxCell>
                <mxCell id="17" value="連絡板テーブル&lt;span style=&quot;white-space: pre;&quot;&gt;&#9;&lt;/span&gt;bulletin" style="swimlane;whiteSpace=wrap;html=1;fontSize=14;rounded=1;spacing=2;" vertex="1" parent="1">
                    <mxGeometry x="164" y="1005" width="225" height="140" as="geometry">
                        <mxRectangle x="562.5" y="450" width="140" height="50" as="alternateBounds"/>
                    </mxGeometry>
                </mxCell>
                <mxCell id="18" value="id&lt;span style=&quot;white-space: pre;&quot;&gt;&#9;&lt;/span&gt;&lt;span style=&quot;white-space: pre;&quot;&gt;&#9;&lt;/span&gt;&lt;span style=&quot;white-space: pre;&quot;&gt;&#9;&lt;span style=&quot;white-space: pre;&quot;&gt;&#9;&lt;/span&gt;&lt;/span&gt;id&lt;br&gt;&lt;hr&gt;メッセージ&lt;span style=&quot;white-space: pre;&quot;&gt;&#9;&lt;span style=&quot;white-space: pre;&quot;&gt;&#9;&lt;/span&gt;&lt;/span&gt;massage&lt;br&gt;編集フラグ&lt;span style=&quot;white-space: pre;&quot;&gt;&#9;&lt;span style=&quot;white-space: pre;&quot;&gt;&#9;&lt;/span&gt;&lt;/span&gt;is_editing&lt;br&gt;編集開始日時&lt;span style=&quot;white-space: pre;&quot;&gt;&#9;&lt;span style=&quot;white-space: pre;&quot;&gt;&#9;&lt;/span&gt;e&lt;/span&gt;dited_at" style="text;html=1;align=left;verticalAlign=top;resizable=0;points=[];autosize=1;strokeColor=none;fillColor=none;fontSize=14;" vertex="1" parent="17">
                    <mxGeometry x="7.5" y="30" width="210" height="100" as="geometry"/>
                </mxCell>
                <mxCell id="19" value="" style="endArrow=open;html=1;entryX=0.5;entryY=0;entryDx=0;entryDy=0;entryPerimeter=0;endFill=0;exitX=0.5;exitY=1;exitDx=0;exitDy=0;" edge="1" parent="1" source="10" target="12">
                    <mxGeometry width="50" height="50" relative="1" as="geometry">
                        <mxPoint x="355" y="917.5" as="sourcePoint"/>
                        <mxPoint x="462.60000000000014" y="820" as="targetPoint"/>
                    </mxGeometry>
                </mxCell>
                <mxCell id="22" value="" style="endArrow=open;html=1;entryX=0;entryY=0.5;entryDx=0;entryDy=0;endFill=0;exitX=0.99;exitY=0.503;exitDx=0;exitDy=0;exitPerimeter=0;" edge="1" parent="1" source="7" target="10">
                    <mxGeometry width="50" height="50" relative="1" as="geometry">
                        <mxPoint x="665" y="740" as="sourcePoint"/>
                        <mxPoint x="665" y="825" as="targetPoint"/>
                    </mxGeometry>
                </mxCell>
                <mxCell id="26" value="" style="endArrow=none;dashed=1;html=1;dashPattern=1 3;strokeWidth=2;fontSize=14;entryX=-0.003;entryY=0.591;entryDx=0;entryDy=0;entryPerimeter=0;exitX=0.5;exitY=0;exitDx=0;exitDy=0;" edge="1" parent="1" source="17" target="12">
                    <mxGeometry width="50" height="50" relative="1" as="geometry">
                        <mxPoint x="444" y="1000" as="sourcePoint"/>
                        <mxPoint x="494" y="950" as="targetPoint"/>
                    </mxGeometry>
                </mxCell>
                <mxCell id="28" value="連絡用メッセージを編集して、&lt;br&gt;「保存ボタン」をクリックする" style="whiteSpace=wrap;html=1;shape=mxgraph.basic.loud_callout" vertex="1" parent="1">
                    <mxGeometry x="827" y="642.5" width="210" height="90" as="geometry"/>
                </mxCell>
                <mxCell id="30" value="(2)編集モードに変更&lt;br style=&quot;font-size: 12px;&quot;&gt;&lt;ul style=&quot;font-size: 12px;&quot;&gt;&lt;li style=&quot;font-size: 12px;&quot;&gt;&lt;span style=&quot;font-size: 12px;&quot;&gt;連絡用メッセージの自動更新を停止する。&lt;/span&gt;&lt;/li&gt;&lt;li style=&quot;font-size: 12px;&quot;&gt;&lt;span style=&quot;font-size: 12px;&quot;&gt;データストアの編集フラグを 1 に変更、編集開始日時に現在日時を格納（id=1のレコードのみ利用）する。&lt;/span&gt;&lt;/li&gt;&lt;li&gt;連絡用メッセージを編集可能なテキストボックスに変更する。&lt;/li&gt;&lt;/ul&gt;" style="rounded=1;whiteSpace=wrap;html=1;fontSize=12;align=left;horizontal=1;verticalAlign=top;spacing=8;" vertex="1" parent="1">
                    <mxGeometry x="449" y="1005" width="310" height="150" as="geometry"/>
                </mxCell>
                <mxCell id="32" value="" style="whiteSpace=wrap;html=1;rounded=0;fontSize=12;" vertex="1" parent="1">
                    <mxGeometry x="80" y="150" width="300" height="160" as="geometry"/>
                </mxCell>
                <mxCell id="34" value="XXXXXXXX&lt;br&gt;XXXXXXXXXXXXXXXXXX&lt;br&gt;XXXXXXXXX" style="text;html=1;strokeColor=default;fillColor=none;align=left;verticalAlign=top;whiteSpace=wrap;rounded=0;fontSize=12;spacingLeft=0;spacing=10;" vertex="1" parent="1">
                    <mxGeometry x="100" y="190" width="260" height="100" as="geometry"/>
                </mxCell>
                <mxCell id="35" value="画面ラフスケッチ" style="text;html=1;strokeColor=none;fillColor=none;align=left;verticalAlign=middle;whiteSpace=wrap;rounded=0;fontSize=14;fontStyle=4" vertex="1" parent="1">
                    <mxGeometry x="40" y="40" width="210" height="30" as="geometry"/>
                </mxCell>
                <mxCell id="40" value="" style="group" vertex="1" connectable="0" parent="1">
                    <mxGeometry x="270" y="154" width="29.77" height="30" as="geometry"/>
                </mxCell>
                <mxCell id="36" value="" style="ellipse;whiteSpace=wrap;html=1;aspect=fixed;rounded=0;strokeColor=default;fontSize=12;" vertex="1" parent="40">
                    <mxGeometry width="29.7675" height="29.7675" as="geometry"/>
                </mxCell>
                <mxCell id="37" value="" style="shape=image;verticalLabelPosition=bottom;labelBackgroundColor=default;verticalAlign=top;aspect=fixed;imageAspect=0;image=data:image/png,iVBORw0KGgoAAAANSUhEUgAAAMMAAADACAYAAAC569cEAAAAAXNSR0IArs4c6QAAAARnQU1BAACxjwv8YQUAAAAJcEhZcwAADsMAAA7DAcdvqGQAABv7SURBVHhe7d0HWBRX2wbgZ5elSEdFRBBsSESJMdaYolFjiZqY+CcxFhQr0os0AUUEo5/GFrsoGruxJFHsJSq2JMaCitgQXLpIR6Xtv4Pj9yVGFGZnZmd3zn1dubLniAks8+yU8847EoUSCIKAlP43QYgeCQNB0EgYCIJGwkAQNBIGgqCRMBAEjYSBIGgkDARBI4tuhJpUA4oqKCqf4ElhPgrySvAUxrBu3QwGkmpIdPSUXyN5/qU8IWEgeFSJytzbuPL7X0hIuIwTlzOQVlCunP2nauUWadnaCUMGvI9BvTvDyd6Sl0MYEgaCB8XIOvsrNu48i2OJuZAXV6G8UvGvELxMV0cCPR3A0MYRo8Z8ibFDu6KhjP5DDpAwEJyqTjuKDat+xbaEdNwuZr6p6etK0cDaAa6TxsBtcHvloRT9BywiYSC4ocjFrd0/Yl5sAk5k03MskJma44Ne/eHv/TU6NlbuNlhEwkCwrzwZ+6KWY/HJh7hbRs+xSaaDpk2dETTPB8OdzOlJ1ZEwEOzKOowYn83Yfa8EeVX0HEckFo6YvSQIY5wb0jOqIWEg2JO+D6GeW7DnwTM8pac4Z9YWMctCMbqD6nsIsuhGsEO+D9P9tmAXn0GgFN5GmEcMNt8soSeYI2EgVCffj/DAzdhx5xnK6SleFd1F2NRZ2JSk2gkKCQOhGmUQooJ+xOZb/14845UyEOFuEdh0k3kgSBgI5uQHED1tA9YlVUAQJ55F92sCsYFhIEgYCGbSD2OOXyzWJnN8yai+iu8jcmo41t+ofyDI1SSi/jKPItptBdam0WMBkpi1QtiyGEzqYEDPvBkJA1E/2UcxY9wK/JgFYRwavYaO7fvYGueHHnVcqSZhIOou+zDCx6zC1lxAYAdHr0SVL+k6DsOZLWPRtA55IOcMRN1UJSIu+EccKtaMIFCoT/mKhwlY8Ev684k3IGEg6kbHEf36tYIVPdQUirJH2BP3E66UvfkAiISBqCM9NB8disUTWsGSntEUVTlXsGbzLXpUOxIGoh4M4TBxNrZ7a1ggygtx+MBJ3HrDqqCGnUAroCgvQEnxE1RUVtNz6iWRSCEzMIKRqZmIPllKcCcuEt8uvQflubRmMLCBz3ch8O9tS0/8m3DDUF2MpwX5yM/Lx+P8AmSnpSElr1wZ8hzcu5uGqw9LBXEiZ9y0OZztzGFqZgarVu3wUZe2aG5tCV0dbY9GIW7HRWPU0rvIoWeErsUADxya2w8N6PHLBBQG5bdRVYqyR2m4eeEyLt16gBu3U3H+ai5yNOXyBUVqiF6fD8LUkZ/ivTbs1NkLVz6S477DmKV3wOLNbNyx7osT8Z5oXcstowIIg/Jwp/QBEs9cxKmTpxB3NBuPNOjArTam9s7w9R8P149aaPnh02MkrZ+LcT/cQRY9I1jGTlizNwYDGtPjl6g3DMU3cHL3IezZfRa/yrUgAS/RNW0B3xh/eHzQnOcOQAw8k6NQYgMzPSbfaR5uxM7DhOV3kEnPCJJxW8zfMAdft371Cpx6PrQqlcf98Svg9lU4xi1J0MogUCqKHmDJ9MXY/bCCnhGo9MNYFhiBUSHrcC6HSSF2I7SfOB1rp7ZBM3pGkCRPkZ6SUmupOf9hyDyOtSHhGBV1FAc14kBTNeXFKYhd8rNwj6mzjiLKbRUWnitCyql4uLj9gIuPmJykmcN5cgTWTG4Na3pGcPSkqCwtQ3ktn708huEp5Ltj8PW3y/Dd8VxkquWWKHVQIOn4z4i9LMAfWBmE8LErsF4OVFVVo0R5+laZchojxi3CBUZ385vCeWoU1k9ohab0jKA8q4KuiTH0azkS5CcMFcnYO80T3yz4ExcLNae2hT0VSL1yQz23RNYm+xCmj1mBbTnPa3heoF4r0s9i9NiFOJfHZC3HEE6e0dg4qaUASzcMYde6JWqr2eM+DI8vYMO0BZh3Kg9yXu8UFxIJcm5cxj2h/PzZB5RBWIOfHlHdT/+NCkRFxjlMHDsfCYwC0QBvucdgs1tLga1Uy2BkVPsFAm7DIP8ZgV8vxPyER8hU6w2y6laOK0l5eFyHYjHOZcUjZEwcduUqXr+nUn6rpRkX4akMxCmGgWg7JRrbPAQUCHNbONVyWZXCXRiKj2P6xK34Ja+i5lhU7BRPqlGh7vchcx9Cx/+IvbmVeEZPvZZCgfz0i5g2bj5+e8TskMlhojIQnsIIhEP7VmhEv34VbsJQdg27Yrbj1+yKur3pBPeoBl/um7Ens7yefY0UyJFfRKibMhA5DAMxQRkI79bqDUQDa/Tv46j8bmrHfhiqHuL8uh/x/ZFHKKaniOd0dNS09EY1+PKlGnzVNwgvKJBxTxkIn/k4mc0wEK6RykA4qC0QEktnDO9nT49ejeUwPEXeie2Ys+keMgRweCwkDWwtYfm6jyWuKIMQEbgF2++q2uBLGYhbFzB92vc4lcXkeqCxMhCh2OLVBk3oGT61//h9tH7D1s5uGOT7ERZzDtcEvuDKPz30+qQrWujTQ77I4zEraDM233rG2uXsjOvnEBS8mGEgLOA4PhSblHsIPtchdFv0RvT49vSoduyFofoBTqz6FYcL6THxP1JzdO3phLo3LWEB1eArMA7rk8qpUkhWZV1LgH/QDzidzeQSYUO85RqMDV4O/KxUGzTCF2O/QifTN3cEYC0Mimu7MfdoMetvvObTQadPB2NYLcVhnEg/hDn+sVh7i7vlzUeJp+DpvwJnGdXXN0K78SGIdW/DeSCM23+CwKF1q5hiJwwFp7F47lkki6bEou50dRvi07ED8JrL2+zKOIpoj9VYfYf7k7bCmycxwWMZLuQyCURDdJgUhrVu3AWigUNvrPtuOJrU8XOIhTAokHd0H9YmkzPml0lhgtHzIjG5DU8nC1nHEDlhBWJT6TEPntz9DaMmLcXvTIv7psxE7CT2a5n0bTth7vee6GFZ9yciqh6G8rs4fSYNpfSQeE4qbYTJi79D5Mc8FTVTDb5clmOjGjrdVaWexgjXhbjAaKXaGB3cZ2PDBPba0MhMrTDSayKGNa/foanKYahKPIifk8nlI2oFoWYVQWqIDz4bjm27FyG0lw01w72sgwgdsxrbcmvuG+QdFb4q+TmMdVmAswyL+9p5zsamyS1VvuwqNbbC+IgIRPav/4eQine6leFK1ER8vvcJPeaHiZEBLE10BXP3mEETO3R3bgFHJyd069wBraxM6T/hQXa8MgjrsTu3Wv2r/RIJTJt1w4qNQfiwEZPP2SdIXhOGUStTGHXdkBhawT0qAtP62jD6lFcpDIqsE/jeZxl+uM3xjllmjA/69MQX/d5Fl3Z2sDIzUL7v1aiu4vuA4BWkOpDJ9CDTN1AeGvF4xYiStR+hYzdiT04lv4+Oei0JGtl2x6INgejFKBBluBMbgW+X369XICRGzeAZNR1+fWxqLdF+E5XCUHo8GgOmXcJDeswFm449EeTngiHOlpBJVT/F0Rrp+xDitgl75RUCCsILEjS16455sYHobcksEHfjwjFiaR33EEa28I0KhFcfO9T9dPnfVNi6KpB++TZ3QZA2wHsDv8CKBX4Y1tGKBOHvqFoj7y3YI8ggUBTISruI6R7Mi/vauM6uW3GfsR18Z/mpHASKClvYY9y9z9U1JB10GvAl5ka64J3Gqv6IWkYZhLCALdh5/5nAK4IVSL9zAaF+C/Abo+I+Izi4zlAGovZaJomZPXxneMKrbyuVg0BhHAZFXgruFdADlkkavQ2fwOH81/IIHfVUzaDN2Hb7mXK/rBkybp5HaOD3+I1RLZOpMhDTsdnb4V+XXSXmLeAd4g7vTxxYCQKFYRgUeJKahMtpHFzIk1pgrN9o9LYQyrUigZDHI5p6qmZSucbdQ56ReA6BQUuZF/e5BmOj1/+K+3Qs7OERMBU+A9syPll+FYZhqEZZ9kNc5uIoybQthvVvJZjLpoIgP4CYgDisFcpTNRnISTwN38DlSMhmEgiqlikY64O7oqtzR3j7eSBgCLtBoDC8mvQMKXEB6Lc0nfVn/749KQJ73d9lbden8TKOYI73Kqy+p6kx+Cfjdh9j7RIP9LRksikX415KFVq3NKfH7GJ8mFScWcD+Q7DNWmBAe0sShBeyjmL2lJVaEwRKSdJJjJ3KtFGZCWdBoDAMQxXy05k/ib1WDZrgHWfe6juFTRmEiLErsE5Oj7VIxb1TGOG6GBcZNSrjDuMwcPHxLTXQh0yntu75IpJ9GGEuK7D1pQZf2oL6mRTyBIwauxDnH6ujmurVGIaBwsEproScNiP7YE2Drx25r27wpS2oQFCNyia4MG1Uxj4VwkCwLms/Qsasw67cao1ZR1CJMhGqNSpjFwmDUGTuR6gr1eCrSly9puhGZQFUozI1B4KEQQioBl9TN2FPllBrjbimQK78D0QFrsFlNTbbImFQtxcNvlKZNvjSFtUoyslGVpH69g4kDOr08HmDrx0qN/jSfBIzO4z0/hb9bNS3SZIwqIs8HpHBzxt8ibpBuRJVdOcZ5A7v/m2hS8+pAwmDOsgPIjooDhs4aPClaaQWdnD3nwq/T9uqvfKAhIFvVIMvv7VYm1SllQtq9SGzaI6Jfl6YNpT9ojsmSBj4lHEEMV6rsfqu2GMA6FrYYoyfL8KGthHMRkjCwJesY5g1cSXWptBjEdM1a4YR/oGIHNqKnhEGEgY+ZB9BhMtybMh8XoYgZjqmVhgVMh3RQ+zoGeEgYeBaTa3RSmxVU4MvIaEafE2IiMCsgTw1V6snEgYu1TT4isVPWl50VxcSIyu4RUZgej9hBoFCwsAVqsGXywbsya0mC2pG1vCkO90JuS6ZhIELGcogTPpRYJ3u1MTQBt5RIfBVodMdX0gY2Ja+D9M9N2O3YBt88Yhq8BXlD28WGnzxgYSBTVTRnf8W7EwReoMv7klM7eE704u1Bl98IGFgizweEUGbsUODGnxxRWJuD+9Qd3j1a6NRzR1IGNgg34/ZQRuxKamcXDWysIfnNHd4D1R/rVF9kTCoSn4QMdM2IFaDG3yxRcfCDm5+7vAfrHlBoJAwqCLjMOb4rsWaZGG1PFEHquhuvK8Xgoe21diNioSBqcyjiHbTnk53qtA1t8FIf3+Ef9ZGo9uCkjAwQTX4cl2BWC6f0qIhdM2aYkRQCGYPaUHPaC4ShvqqearmCmzJJkV3OiZWcAkNQ/QgW3pGs5Ew1EdN0d1qbM+t6SkoalIjK0ycGYGIAdoRBAoJQ11lxSPUhWrwpSDrCMoguM8KR4jAa43qi4ShLmoafFFP1RRZg69XoJ6q6RUVDv++tlq38ZAwvEnpScx0E3ODr78xag6fqCD49LEVfNEdEyQMr1OejP3/2YZdaWJv8KVkYgffSB949bHXyAW1uiBhqFUBbu/YhPn7c1FCz4hVzVM1wz3h1a+11gaBQsJQm4cHEL36Bh6I/F5NqsGXV7A7vPqz91RNoSJheJXqFByJPYpzXD3mWkNILezhHuAG30GaWWtUXyQMr5JyFEuPF4j6EipVdDfJzwPThjhq5cnyq5AwvEzxGEnxl5Ak4r0C1eBrrJ8PQoc6iGoDIWF4Wd6f2HM+T7T3JeiaW2NEwDTMHCq+Z3GTMLxMfhl7b4mz2EJmaoWRVIOvwfb0jLiQMPxDPq4cTkYePRITqsGXa3gEorSo1qi+SBj+LudPHLtRKrrOd1St0ZTICIR9ItwGX3wgYfibqnsXsStRXC2/XjT4CtKyojsmSBj+6wlunbmDTHokCka28I4KrWnwRTYEEob/yT6PI4kiup5q3By+s/zg3ae5KBbU6oKEgVaedBZ7r4vkKlJNgy9vjWrwxQcShhrluH/xNlLpkTajiu58pqujwVc5qp4W4mlRLkoL8/GstAgVlcL68JEolOjX9VCEUz6ucDnN7nUXacuPsC3ODz3M6Am+5J7GQo/FWHJHu+9qlli0gEfAVPjx1teoGoqnuci4/hf+SExD2uOnyEu9h8RHgFljS7RpbYd27Z3xQde2sDQzVvsJPAkDFMj7ORzDo24iRYuzoGNhjyn+VK2RA0+1RgW4//NWrNx1DvE3SvG6szGJ1Ah9RnwB75Gf4B0bU3qWf+QwCTlI2KvtQaAafHkiiK8glFzCJh9ffDrrKHa+IQgURXUpjm/dDJep/8HGC3K1rfOIPgzV8iu4mk8PtJCuuS1G+/vx1+Cr9CJWei5E1OlCPKGn6qrw4Q3EBH2HJQkZamnDI/IwVCPv4nlc0tL6i5oGX9OCEDWkJT3DtVT8FLISP1wtY/y0omfFGVgTNguxd/g/uRZ5GLJxbMdVXCmjh1pEZmKFMaHhiB7cnJ7hWjke7V+PhQmFbzwsepOyolz8tGobHvCcB3GHITsRN4vo11qEavA1YWYEZgzgsdaoMhGb9txXnjazQYHkE78g9hK/pTEiDkMlss7+iUQtC4PE0ApTZ0Xw3+Ar5Q8cvlwC9nayVXhwNZnX+0pEHIZMnNj5By7X9yxPwGqK7maHI0AZBH5/sZUous92FxEJilJvIZXH3494w5B/HX9pU1VeTdFdEHzV0eCrOhv300pYviRajasXb+FuAX8nDiINQzkyTl/DXW3pFWlCFd35wrtPC/XUGpWXID81Axn0kDX5BSgoJWHgWAZO7VYeImlDGKgGXxHUUzXV2OCrSgEUlXGyNqBQ8LcEJ84wFCTipBbc50w9VdMreCq8P9H+Bl98EGEYnuLhiSu8X8NmG9Xgq6bobpB4+hpxTXxhUKQgfvs13FFXAQwLqAZfk/08ECCiBl98EF8YMq7g1L1KtRWDqYpq8DXO1xshImvwxQeRvZ8lSDl7CxkamgRd82b41j8AMz5rLfqb97kgrjAoUnFw/308ooeaRGbWFN8Gh2rFUzWFSlxhSP8Tx66XaNzzFvRsO2HuoijMHijeBl98EFEYniL94h1kathNPMZvfYxNGyLwVSdLeobginjCUJWMfUcfopAeCl0DG0dMDfDBsTgv9GhEzhD4IJ4wyC/h4B9FKtfac83C0QmT3SfjwJYohIzuDWsDEgS+iCQM1Si4KccjgV5FauXcDi6jh2LR3DAcWhOGsEmD0MpMj/5Tgi/iCENVJlLkpQL6YWV429kRo/6vP6KjQ7BlYRAiA8bjywFd0NTUkP4agm/iCENFKQpKq9X7w0qN8XaHNhg++ENERgdh9ffBiA6bijGDu6NZY3OykiwA4giDji70pAr+n8Zjaoz27ewxsHcPzJrjg5XfT8fCaH+4Du6KZpYWInnzNYc4fh+6VrBtLGPcsaE+9Az1YWfTGD26vYfZM7yxZskcrF4UjHHKQyDbJhb0VxFCJJIPJ0PYd7EDV436jAx0YW1phrc7vwsPj0mIXf8DdqwOgkvfrrC1JOcAmkI8e2qHfpjYtxFrgWigp4NGZoZo/25HTPH1wPbtK7EvNgK+I/vCsYkB/VWEJhFPGCRt8Y33QPRqKgOji5YS5dGWVKLcC+ijXceO8AyZhv2/rMOBdZHw+aYXWjRsQH8hoalEdQ4nsfsUIVOc0IR6/Xzqjaiv09U1QIfO3REWMx3HD8Xh0IZIeH7RA83MyB5Am4gqDNS5g82wGTiydTy8upnBhJ79uxchkeoboluvXpg3PwxnjsQifm0IXAd2gbUZ2QNoK5GFgaIDo3ZDEbB6OU4uH4OZ33REXwcTtG5qgo7Ojhg5YggWLgjD2fhV+GmxD77ppwyAuRH9dwltJsIwvGAEy55fYnxQCNZsXIoDOxZh56pwRAe6YnjfLmjWiNpvkLogMRFxGGhSA8gamMPAtBEMDI0hlZK3RKzIb54gaCQMBEEjYSAIGgkDQdBIGAiCRsJAEDQSBoKgkTAQBI2EgSBoJAyE6nS0YzNi+FMo/1ol+63pqp+WoeSJtjxbSkwqUVLCTR8eiZS/VgkMwyBDQ1sOKjlLH+NB2mN6QGiMyjwkp9Ov2WRqDVtT/vY6jPcMJlZm7D86qeg+fk2QQ/MfMCUy8qs4mEO/ZpGlozUa6gs+DDowsbYBF83Rrx47i1u893QhmCtG2pmbSKNH7NGBY1tbNG7AXxk94z2DoU1rdG/JwTeafQ27jqRw8uRIggM5CVi1I5OTNjxGTW3QWJce8IBhGCRoYN8M1sYc7MKq87Ezdh+uPSNxEDxFHm7sPoRf8+gxqyQwbWrF6+1VzLdmMwe0NuFmgy1JOQn34B1IJYdLgvbsTCwC4tKUB0pcMIC9vTH9mh8qfLQ3wVvNuHv6sPzUTrjP3I0UcqVVeKoe4/6+JRgXegFJFfQc2yw7opslv7fdqhAGCax6vIOenHVMVOD6gc0Y7vof7Dyfgmca/Kha7aFAZcYF7JkXg/FRv+FcGT3NOhneG9AZDjz3YZAolOjX9fcoAct8F2P+DW4vhlKfDw0du8N3bF/0fbcVrBqbQ1az6knOK7hFvfMVqCrMQsaDJJz4+RDi4h/ggXJvwO07rw+XpWsw+0NTeswP1cKAElwIHIdvjvGzMqArk8JYXwd6ujLlPzrQ1ZHweoIlOspNo7KqEuXlVSh7WomnlQpe9tAW1m2x8Kd56KNRewalyt8XYdS007jAzVkUIToy9Brvg5VeH4DvblUqXxuVdRiAL5y4O5EmxMYAnT7pwXsQKCqHAYZO+HxYGzRT/b9EEGjo3Auft1XPhysrm3CD9z/DuHfIA/kIFek1xySPoWilpg9Wdv63Ju/B1aUjuKjOIMSjeZ/++KqbFT3iH2sZ1PtwBCK+soY5PSaI+pBadEJ0yEDwvM72D+ztkKSt0HfMIAx+S4/90m5Cu0lNMcz1K/QyU++Ww+7Rme0QhE7qhJb0kCDeSCKFjVMf+I1qp/Y1I5ZPVSQw6eOKGNeWaErPEMTryOzex+JlLrBjeUtkgoNvwQrdp0xE8CArNKRnCOJVdKzewYL5buhmJowrL9zkUd8JX84ch6/sDdSyeEIIn46FHSbP8McXDsJ5NDB3Oyf9Hghd7YIvrfVAnoJG/J3MxBLDvX0R0vNVT9VTH5Vrk96o8BK2zV6JecfzkE9PEeIla9oBs2d7YmQX9a0n1Ib7MFAqU/Hb/PkI3JkODpooEBpC3/ZdLFk1HYNs+OuFVB/8hKHGU2Qd+AETZ5xDIukFIyoSXUN8NPRzhHgNh5O5MINA4TEMlCqUXNuDtRtPYvuJTGTRs4T20rd1RrD/GHzbywGGArh8+jo8h4FWVYTs09sxd10CTtwoRgE9TWgPmYUVPh3YH+4TB6NdQ316VtjUEwZaZfYVnDl8Cvt+u44/rz9CKlc3lxO8sbCzRc+O3TF2wgB0sbOEjgYVb6o1DC9UFdzH3b9+x/5Dl3Dhxj38nqH2b4moFxk6dX4Lnbt0w2cDuqCdvTX0BH5I9CqCCMN/VeYj724yEhNv4s8r93AnqwiPi0qRfDcfhfSXEOonNbRE1zZGMDc3Q/M2jujeuT06tm8DKzPhLKAxIawwvKzkAdJSMpCR9RipSddxNUcBWUUpckqqoacrIb0x+KDcPCQKGRqYGsNCufHb2DdH6xY2sLNpCutmVhDutaH6E3YYakWaKPGHOujXoAN/FWhoGAiCfRp4mkMQ3CBhIAgaCQNB0EgYCIJGwkAQNBIGgqgB/D/RUFnM0JO8dwAAAABJRU5ErkJggg==;" vertex="1" parent="40">
                    <mxGeometry x="4.807855000000027" y="5" width="20.15755875" height="19.845" as="geometry"/>
                </mxCell>
                <mxCell id="41" value="" style="group" vertex="1" connectable="0" parent="1">
                    <mxGeometry x="310" y="154" width="40" height="36" as="geometry"/>
                </mxCell>
                <mxCell id="39" value="" style="ellipse;whiteSpace=wrap;html=1;aspect=fixed;rounded=0;strokeColor=default;fontSize=12;" vertex="1" parent="41">
                    <mxGeometry width="30" height="30" as="geometry"/>
                </mxCell>
                <mxCell id="38" value="" style="shape=image;verticalLabelPosition=bottom;labelBackgroundColor=default;verticalAlign=top;aspect=fixed;imageAspect=0;image=data:image/png,iVBORw0KGgoAAAANSUhEUgAAAKwAAACtCAYAAAAtbZR9AAAAAXNSR0IArs4c6QAAAARnQU1BAACxjwv8YQUAAAAJcEhZcwAADsMAAA7DAcdvqGQAAA/HSURBVHhe7d0JXBT33cfx7y6wwAIBBVRUTgHBA42KeKRqQnN4xuiTmKSKqH1s1dRo4lHtYdTmaW18+ah5WcOTxJAabSQm0Ygm1BpEMCIiKHIJyg2GSzkFdtndzvJMjsaDAXaZ+e/83i+j+x9I8nL47H9nZ+dQGDgghBFK/k9CmEDBEqZQsIQpFCxhCgVLmELBEqZQsIQpFCxhCgVLmNL7n3Rpm6DRaKHT6fkFxKQUSiitbWFjr7bI2cjMwXL/aX0LNA21qCotxo2b5SiuqEVNdRXyi+vRyn8XMSGHPgj06Qd3V1d4efpg2Ehf9Hdxhkplw38D28wUrAH6+iLkpqbgbOIVnIzLRSbVKRIlAkJD8fxTkzH7mQkY6Mh2uCYO1gBDcxHST36GPe+eR2KNATr+K0R8du4+eOnlOVj+wjQMVCv4pWwxYbAtKD8ZjR3vnUVckYZe7iVM5eaLX736S7wyYxjsGNvQNU2wmkzEbN6LP5+pxh1uaIZtDGJi1ra2CH7yBby96Tn4MjTb9jBYA9oLTmLH1iM4lNGEZn4pYYNxcrXyC8fRA6sw2pmNaHsQLBdr5kdYtTkWCaUaboOAsEjBdWrvMw2HPliNMQxE2+0tGF3OYaz6YyziKVamGaeru0UJWBK5G5fqpb8x171gW5IRtfcrfF2oQRu/iDCMq7auOBErl+zBRYlH2/VgDbeRdeAQ9iU3QcMvIhaAi7aq8BzWLN2D5DrpRtvlYBtP7cKy98rQxI+JJTGgouAc1q3YjQt3pBlt14Ktv4TDMbm4xQ+JJTKgNDcRG9e+jeTb0ou2C8EaUBv3Md7NoM+uLJ8BxVfjsW49F22ttKIVHmxzNk7EFqKaHxLLV5oWj7Ub/4aLEpppBQfblnYKn+dKd2OcmEfF5X/hlXVRuCSRaAUGq0N5SgauaPkhkZWq9Dj8cm0U0iTwRkxYsC15SMq4yw+IHNVlxOEXq97BFZH30woKVluUhesN/IDIVkvOPzF/6T5kiBitgGB1qC+4hlNFdEqL3Bkz1RWcwfwle5EuUrQCgtWjqaIKdfyIyJsxU03RWSzkok1t6P1oBQSrRWVeNZctITyu06aiBCyP3I2UXp5pBRxe2IiE3yxGRFLvP5uMnGy555SNPbwGusDVwQZW/HJ5akF50R3UtGjR1GaARpwfyQ8UCnj4/gy7D6zBhF46NFFAsA1IeHUJIs710hxr5Yyp00bhicfGICxoINycVIC1HRwdVFByK8ig03W8LMmO8fRtpR7a1jZo2jTQaFpRW5yHtJQrOHYsHami7cRRYHDAFOz8v1cx0cX80UooWGv4h4Rg8X8vxPzQwXCwtYzTks1O34Lm4nScjjmGfUfykSfKs1kBrxFT8NaeVzGhr3mjFbRby+wUKoQ+Mwc7d/4WEY/5UqxdobSHg+8kzF2/GR++MR7BovxEDSjJPIcN6/Yi+bZ5JzYJBGuFEY/PxvbfLcSj7hRqtyldMHDOGvx9WyiGihRtcfpZvL5hn1mP8hI/WKdheP2Pv0Cwo/TPJ5I+e/SbuQJ/Xe6PQfyS3lZ2+Wus2bAfKWaKVtxgla5Y9eYKPMHIGZts6IPRC2djRn9+KIJbl0/j1+uikGqGYw/EDVbthxmTPfgBMRmHUZi3IBjeIs4DtelxiFwdhXQTRytqsIHzwkXa3rJ0zgh+ehS8RV63jZlxWLB8P66a8MMF8f5K6sF4anh/WPNDYlqKAd7oJ4FPWTQ3TnccMHOl3jR7D8QL1nEAxo5yB229monCDWEh/GMRGefW9sIzeHHJ20gzwUwrWrBKtR3Udg78iJgc14ZKLY3tLeNHUy1FCYhcsheXenjAjHh/I4U0Vqbl6vlsZlJctfVctCsie3axDqqG9B4u2uqOi3W8jfRuXjmQgiW9zHixjiS8ueML3OrG+zAKlohAi0tfnUDUyfwuH2dNwRJxaGvw970HEd/FU1koWCIaXU0Wot6LR1fOb6VgiYj0uBx7HPE1/FAACpaIqr2+BJ98liH4Ji4ULBGZATlnv0S6wOu3UrBEdDU5KThVKuzDBAqWSEJFRomgz+YoWCIBCjTczES5gBtmULBEAnRIu/ot6lo7n2MpWCIJ7SVFKG3s/OruFCyRBu1d1LdQsIQlnV3ThUPBEqZQsIQpFCxhCgVLmELBEqZQsIQpFCxhimjB6lua0dBM9/4yGwVwt9HcF6HufeLNsM01uFF0hx8Qk1M0IiuHf2xBxAu2sRhH4wuh4YfExEqyccMCV66o27A34y8gj+5mbwYNyP06G+WWt0Ug8puuulycOFfGD4jJ1J1HVHQOSvmhJRE3WN1tHNj1MS4KPJ+HCGD4FumH43C2nh9bGHGD5WjKkvHG5mjk0A4DE2hA+amP8KePinGbX2JpRA/WeLR5duIXWL0pGlfqaIO227hXq/IT+7Fq+3mktvDLLJAEgjUyIO/ccby4bBdiLhTgrpbCFU4HXfk3OLrjTURsT0a6gPOiWCa9W3cqlPAaGYrI5yZh2oSR8HOzg96ggJJ7agk4vteCKf7/krp6PfdLB01jDW7dyMX5Mwn4x4lcZAm9EoVUWflhx+E38WKgHb/g/qQXLM94KXkr7gdko+QeqezgO7gv3OjmyCgvuo3K5na0thug434kxtcii3gesx4skRmBwUpkG5YQYShYwhQKljCFgiVMoWAJUyhYwhQKljCFgiVMoWAJUyhYwhQKljCFgiVMoWAJUyhYwhQKljCFgiVMoWAJUyhYwhQKljCFgjUhKxsVho4MxOypI/Hs5ACM628NB2uA+0VMhE5C7Ka+Lo4YMMAVfr6+GDvKG55u/eDl1w9O3NeUNtZQ6LTQcWtW365Fa0MtystuoaSgCFdyipF7vQKZFnopoW6js2bNo28fJ3iNGIfFcx/DxPEh8HDs4vzZVoWKrKtITr6E2NPZyKpsxrcWfKUWwShY01LbqeA3/gmsjpyO8Ee9TPMy35SPS7En8M6H3+BClQ7Ncl7FdJq3qSjgFTwSG3fuxIk9v8LTporVyDEAoS++hvcPvY4tswZhiJpfTh6Ign0oJUJmL8T7+7cgcrKn+VZW34lYsPUvOPBaKMJc+GXkvijYB1JgxKxlOLhtHgKde+MCSY7wmb8R7/5+EkKd+UXkHhTsfSkw7qU1iNk+A7074VnBOXw9jkY9jVDj7gZyDwr2HgoMn7MC0RumwIFf0uuGLsX72x7HeEd+TL5Hwf6E+9gF+GDrkx37U8WjgvO0CLy1cjg86Sf0H2h1/IiV51hs+e1M9OfH4nLhtmkXYuMMN/FmegmiYL9nhZ8//xxm+kvodVgVhNmrZ2HaI/yYULDfcRo9HWueDZLeCnF/HKsjA+HBD+WOgu2gwjNzwzHsESle3/sRBM17HBPoDVgHCpZjGzAVEVM9+ZEEOU9E5AJ/DDZeR1/mKFiOa8hEhLhI+e4Jzhj9X2EYruKHMib7YNWeo7D2hSB+JGEDHsOs4TS/yH4NOHsHIczz4UcISYMagZOGIVjms6zsg7Ue4A8vexY2Dh3hHRYIbxaeW2Yk82AVCBntw/3OAiXsAwPgacsPZUrmwTrAuw9DZ1yp+qEfBStnSlgbWDrMXwkbmZ/RKPNgVXBQsbRzUwk7mZ+VIPNg9dDqOzmlTVL00Mn8RucyD7YdGsYCaNfyD2RK5sHqoNGztEmgRSsFK2d3UVSj4R8zQFOD6rv8Y5mSebAGZGWVcr+zQIe7efkoYej5ZQ4yDxZoq8hHcTMLybag7GI2shv5oUzJPtjaG1n4poSFawXVIeub6yjjR3Il+2B1VVn4R/IdfiRVBujLE3Esgx/KmOyDNcr7ZyxyGqW8WVCPq5+mIl/m+2CNKFhOe0U6Pkiq5kcS1JyE3R8WoJylzzjMhILltDdU4vPoY8hr4xdISj2yDycgh6522oGC5WlKL2L/kUxI7lW3+Di2vHMDlfxQ7ijY77TcxolPPkdsfhO/QAK0eTgVnYRsml2/R8H+iLYsDZu3HUG+JD7+bEDx54fw1vFqSOgpJDoK9ieasuKwdn0Mitv5BaJoR1NSNNbuzEABvdH6DxTsTxm0uJbwKf6w5zSqRNmgNaD1wt+w6LV4XJb5gS73Q8Helwbnjn6EDduPoqRXozGgJSUKS7lY0yjW+6JgH8DQ2oD444exYttnKOiVYw30qDuzCy/9Jg7nW/lF5B4U7EMZkBl7ELMX/Q9i0iu5pMzBAF1lCj7dvgbTNyQhXeZHY3WGghWgqTAVm1a9joitH+PaHVNt2BpgaMhF4rtbMH3Wn/HaZ6WooN1XnaJgBWpvaUbSsSOYNzMCc1fvwdGk62hu786mggZN+UmI3bcZPw/fhMX7r+G6qHsk2EI3lusmtcoa9k4uCBkdhMnjAhAwyBOBw7zgqraFtY0KCr0Gem6V6dsaUVdZhoL8QmRl5uBCegEyS5tQ16pHC63SH9CdEHuXTR9HeDvawkmtgq2Vklux+o5tXl1bGxrvtqGhshm3aJ/qg5nuTojcTKKW8qUopUF7pwk3SmuRfv0WkrPLcSHnFi5y/6QW3Mb1bynWTlnbw1Ftww8eTECwNnD1cmHk+lOEVX2G+8LLqfMcBQRrhb7+/gimt2fEbKwQPDIQgxw6nxYFZKiEk89QhPlQscR8XDy94SrgumGCKrT2C4Qf3RSCmI09fIYM4B8/nLBp08oXI/1UtB1LzMPZD6G+wi4tLvB13g7DwsfiZ678kBCTUSJsTjjGCLx5nuANU9sJczB7CO3eIqbmgPFPToCLwJdv4e+krP0xZYo3ZH55UmJSCgydGo7nhwm/04jwYLlvHTBzPl4JoVmWmIoKY+fOgHcXkupCsByXSVi1NhQjaI8B6TErjJ23BJumufNjYboWrFHIMmwNV3fjXyTkB66+E7Fh9ZPo6o3Ku96d0g3j1q7E+jG0m4t0k6IvFv9hMSY4dyM//s+ucZ6MlX96Gc/148eECKV0wIxfr8TKR934BV3T/Vd2j2fxv+8txgsULRHKyhFPL30Fu5aPRefHZd2fgONhH8YAQ8W/sPN3B/HBlUY080sJ+SkH90F4dtEyvLHoUfTk3ng9DJZXn4LorQdxKLUMeTK/QjS5V8CYMEQsexmLJnn1+H2PaYI1aq9AduwXOBDzNT7JoZPqiQIeHu4Y9dRcbI6YBu++9vzynjFdsB3aoavNxfkTXyHmyzR8mdfCLSHyYoWBHn0xesoTiJg7BWFBA026C9TEwX5Hj/bqbFxOvIDTiddwubAepSUNqDbD/4mIT+msho+THZydXBA8bhxmTZ+GycEe/FdNy0zB/pgWmsp8ZGfdxPW8QuTcLEdhVSsMVkr68IFp3KSkcIL/8CEYPtQXQ4cEYFjQIJj73s29ECwhpkOTHGEKBUuYQsESplCwhCkULGEKBUuYQsEShgD/Bu8GXwvhgTpbAAAAAElFTkSuQmCC;" vertex="1" parent="41">
                    <mxGeometry x="5.740000000000009" y="5.999999999999999" width="18.305045739600715" height="18.41090846326448" as="geometry"/>
                </mxCell>
                <mxCell id="44" value="" style="edgeStyle=none;html=1;fontSize=12;endArrow=open;endFill=0;entryX=0.5;entryY=0;entryDx=0;entryDy=0;" edge="1" parent="1" source="43" target="36">
                    <mxGeometry relative="1" as="geometry"/>
                </mxCell>
                <mxCell id="43" value="編集ボタン" style="text;html=1;strokeColor=none;fillColor=none;align=center;verticalAlign=middle;whiteSpace=wrap;rounded=0;fontSize=12;" vertex="1" parent="1">
                    <mxGeometry x="240" y="80" width="90" height="30" as="geometry"/>
                </mxCell>
                <mxCell id="46" value="" style="edgeStyle=none;html=1;fontSize=12;endArrow=open;endFill=0;" edge="1" parent="1" source="45" target="39">
                    <mxGeometry relative="1" as="geometry"/>
                </mxCell>
                <mxCell id="45" value="保存ボタン" style="text;html=1;strokeColor=none;fillColor=none;align=center;verticalAlign=middle;whiteSpace=wrap;rounded=0;fontSize=12;" vertex="1" parent="1">
                    <mxGeometry x="330" y="80" width="90" height="30" as="geometry"/>
                </mxCell>
                <mxCell id="48" value="" style="edgeStyle=none;html=1;fontSize=12;endArrow=open;endFill=0;" edge="1" parent="1" source="47" target="34">
                    <mxGeometry relative="1" as="geometry"/>
                </mxCell>
                <mxCell id="47" value="連絡用メッセージ" style="text;html=1;strokeColor=none;fillColor=none;align=center;verticalAlign=middle;whiteSpace=wrap;rounded=0;fontSize=12;" vertex="1" parent="1">
                    <mxGeometry x="413" y="200" width="110" height="25" as="geometry"/>
                </mxCell>
                <mxCell id="49" value="" style="endArrow=open;html=1;entryX=0;entryY=0.51;entryDx=0;entryDy=0;entryPerimeter=0;endFill=0;exitX=1;exitY=0.5;exitDx=0;exitDy=0;" edge="1" parent="1" source="10" target="28">
                    <mxGeometry width="50" height="50" relative="1" as="geometry">
                        <mxPoint x="865" y="700" as="sourcePoint"/>
                        <mxPoint x="749" y="820" as="targetPoint"/>
                        <Array as="points"/>
                    </mxGeometry>
                </mxCell>
                <mxCell id="50" value="連絡板テーブル" style="shape=cylinder3;html=1;boundedLbl=1;backgroundOutline=1;size=15;fontSize=14;" vertex="1" parent="1">
                    <mxGeometry x="1192" y="767.5" width="90" height="100" as="geometry"/>
                </mxCell>
                <mxCell id="51" value="(3)編集したメッセージを保存する" style="ellipse;whiteSpace=wrap;html=1;" vertex="1" parent="1">
                    <mxGeometry x="1076" y="657.5" width="210" height="60" as="geometry"/>
                </mxCell>
                <mxCell id="52" value="" style="endArrow=open;html=1;entryX=0.5;entryY=0;entryDx=0;entryDy=0;entryPerimeter=0;endFill=0;exitX=0.5;exitY=1;exitDx=0;exitDy=0;" edge="1" parent="1" source="51" target="50">
                    <mxGeometry width="50" height="50" relative="1" as="geometry">
                        <mxPoint x="1278" y="747.5" as="sourcePoint"/>
                        <mxPoint x="1266" y="832.5" as="targetPoint"/>
                    </mxGeometry>
                </mxCell>
                <mxCell id="53" value="" style="endArrow=open;html=1;entryX=0;entryY=0.5;entryDx=0;entryDy=0;endFill=0;exitX=0.99;exitY=0.503;exitDx=0;exitDy=0;exitPerimeter=0;" edge="1" parent="1" source="28" target="51">
                    <mxGeometry width="50" height="50" relative="1" as="geometry">
                        <mxPoint x="778" y="697.5" as="sourcePoint"/>
                        <mxPoint x="846" y="698.4000000000001" as="targetPoint"/>
                    </mxGeometry>
                </mxCell>
                <mxCell id="54" value="&lt;span style=&quot;text-align: center;&quot;&gt;(3)編集したメッセージを保存&lt;/span&gt;&lt;br style=&quot;font-size: 12px;&quot;&gt;&lt;ul style=&quot;font-size: 12px;&quot;&gt;&lt;li style=&quot;font-size: 12px;&quot;&gt;編集されたメッセージをデータストアに保存する。&lt;/li&gt;&lt;li style=&quot;font-size: 12px;&quot;&gt;編集フラグを 0 に変更する。&lt;/li&gt;&lt;/ul&gt;" style="rounded=1;whiteSpace=wrap;html=1;fontSize=12;align=left;horizontal=1;verticalAlign=top;spacing=8;" vertex="1" parent="1">
                    <mxGeometry x="1307" y="657.5" width="310" height="155" as="geometry"/>
                </mxCell>
                <mxCell id="61" style="edgeStyle=none;html=1;exitX=0.99;exitY=0.503;exitDx=0;exitDy=0;exitPerimeter=0;entryX=0;entryY=0.5;entryDx=0;entryDy=0;fontSize=12;endArrow=open;endFill=0;" edge="1" parent="1" source="56" target="58">
                    <mxGeometry relative="1" as="geometry"/>
                </mxCell>
                <mxCell id="56" value="表示モードのまま、&lt;br&gt;指定時間が経過する" style="whiteSpace=wrap;html=1;shape=mxgraph.basic.loud_callout" vertex="1" parent="1">
                    <mxGeometry x="420" y="410" width="190" height="90" as="geometry"/>
                </mxCell>
                <mxCell id="57" value="" style="endArrow=open;html=1;entryX=0;entryY=0.51;entryDx=0;entryDy=0;entryPerimeter=0;endFill=0;exitX=1;exitY=0.5;exitDx=0;exitDy=0;" edge="1" parent="1" source="2" target="56">
                    <mxGeometry width="50" height="50" relative="1" as="geometry">
                        <mxPoint x="250" y="667.5" as="sourcePoint"/>
                        <mxPoint x="425" y="695.8999999999999" as="targetPoint"/>
                    </mxGeometry>
                </mxCell>
                <mxCell id="58" value="(1)最新の連絡用メッセージを&lt;br&gt;最新化する" style="ellipse;whiteSpace=wrap;html=1;" vertex="1" parent="1">
                    <mxGeometry x="665" y="425" width="210" height="60" as="geometry"/>
                </mxCell>
                <mxCell id="59" value="連絡板テーブル" style="shape=cylinder3;html=1;boundedLbl=1;backgroundOutline=1;size=15;fontSize=14;" vertex="1" parent="1">
                    <mxGeometry x="705" y="520" width="90" height="100" as="geometry"/>
                </mxCell>
                <mxCell id="60" value="" style="endArrow=open;html=1;endFill=0;entryX=0.5;entryY=0;entryDx=0;entryDy=0;entryPerimeter=0;" edge="1" parent="1" source="58" target="59">
                    <mxGeometry width="50" height="50" relative="1" as="geometry">
                        <mxPoint x="772" y="725" as="sourcePoint"/>
                        <mxPoint x="870" y="550" as="targetPoint"/>
                    </mxGeometry>
                </mxCell>
                <mxCell id="62" value="&lt;span style=&quot;text-align: center;&quot;&gt;(1)最新の連絡用メッセージを&lt;/span&gt;&lt;span style=&quot;text-align: center;&quot;&gt;最新化する&lt;/span&gt;&lt;br style=&quot;font-size: 12px;&quot;&gt;&lt;ul style=&quot;font-size: 12px;&quot;&gt;&lt;li style=&quot;font-size: 12px;&quot;&gt;データストアから取得した最新の連絡用メッセージを、アプリの連絡用メッセージに表示する。&lt;/li&gt;&lt;/ul&gt;" style="rounded=1;whiteSpace=wrap;html=1;fontSize=12;align=left;horizontal=1;verticalAlign=top;spacing=8;" vertex="1" parent="1">
                    <mxGeometry x="900" y="405" width="330" height="100" as="geometry"/>
                </mxCell>
                <mxCell id="63" value="" style="curved=1;endArrow=classic;html=1;fontSize=12;exitX=1;exitY=0;exitDx=0;exitDy=0;entryX=0.49;entryY=0;entryDx=0;entryDy=0;entryPerimeter=0;" edge="1" parent="1" source="58" target="56">
                    <mxGeometry width="50" height="50" relative="1" as="geometry">
                        <mxPoint x="480" y="580" as="sourcePoint"/>
                        <mxPoint x="530" y="530" as="targetPoint"/>
                        <Array as="points">
                            <mxPoint x="890" y="340"/>
                            <mxPoint x="640" y="320"/>
                        </Array>
                    </mxGeometry>
                </mxCell>
                <mxCell id="68" style="edgeStyle=none;html=1;exitX=0.99;exitY=0.503;exitDx=0;exitDy=0;exitPerimeter=0;entryX=0;entryY=0.5;entryDx=0;entryDy=0;fontSize=12;endArrow=open;endFill=0;" edge="1" parent="1" source="64" target="65">
                    <mxGeometry relative="1" as="geometry"/>
                </mxCell>
                <mxCell id="64" value="指定時間（例. 5分）経過" style="whiteSpace=wrap;html=1;shape=mxgraph.basic.loud_callout" vertex="1" parent="1">
                    <mxGeometry x="827" y="892.5" width="210" height="90" as="geometry"/>
                </mxCell>
                <mxCell id="72" style="edgeStyle=none;html=1;exitX=0.5;exitY=1;exitDx=0;exitDy=0;entryX=0.5;entryY=0;entryDx=0;entryDy=0;entryPerimeter=0;fontSize=12;endArrow=open;endFill=0;" edge="1" parent="1" source="65" target="70">
                    <mxGeometry relative="1" as="geometry"/>
                </mxCell>
                <mxCell id="65" value="(4)編集モードを解除する" style="ellipse;whiteSpace=wrap;html=1;" vertex="1" parent="1">
                    <mxGeometry x="1077" y="907.5" width="210" height="60" as="geometry"/>
                </mxCell>
                <mxCell id="66" value="&lt;span style=&quot;text-align: center;&quot;&gt;(4)編集モードを解除する&lt;/span&gt;&lt;br style=&quot;font-size: 12px;&quot;&gt;&lt;ul style=&quot;font-size: 12px;&quot;&gt;&lt;li style=&quot;font-size: 12px;&quot;&gt;指定時間経過しても保存されない場合、編集終了と見なし、連絡用メッセージを編集不可能のテキストボックスに変更する。この際、編集中の変更はキャンセルとし、データストアのメッセージをアプリの連絡用メッセージに表示する。&lt;/li&gt;&lt;li style=&quot;font-size: 12px;&quot;&gt;データストアの編集フラグを 0 に変更する。&lt;/li&gt;&lt;/ul&gt;" style="rounded=1;whiteSpace=wrap;html=1;fontSize=12;align=left;horizontal=1;verticalAlign=top;spacing=8;" vertex="1" parent="1">
                    <mxGeometry x="1317" y="990" width="310" height="155" as="geometry"/>
                </mxCell>
                <mxCell id="70" value="連絡板テーブル" style="shape=cylinder3;html=1;boundedLbl=1;backgroundOutline=1;size=15;fontSize=14;" vertex="1" parent="1">
                    <mxGeometry x="1197" y="997.5" width="90" height="100" as="geometry"/>
                </mxCell>
            </root>
        </mxGraphModel>
    </diagram>
</mxfile>